<svg width="154" height="115" viewBox="0 0 154 115" fill="none" xmlns="http://www.w3.org/2000/svg">
<path d="M153.419 57.6695C153.413 68.1477 150.451 78.4221 144.859 87.3669C139.266 96.3116 131.258 103.582 121.711 108.38C121.282 108.6 120.849 108.811 120.414 109.013L120.323 109.057L120.013 109.202C119.756 109.325 119.503 109.44 119.242 109.554C117.611 110.284 115.937 110.939 114.222 111.52C113.248 111.851 112.264 112.157 111.27 112.439L110.08 112.76C96.8432 116.2 82.7895 115.006 70.3603 109.387C69.851 109.154 69.3418 108.916 68.8416 108.67L67.9403 108.23C59.0196 103.669 51.4523 96.9436 45.9668 88.7017C45.39 87.8427 44.8402 86.9632 44.3174 86.0632C43.8518 85.2805 43.4011 84.4875 42.9655 83.6843C38.7317 75.6357 36.53 66.7164 36.5438 57.6695C36.5438 56.6024 36.5738 55.5412 36.6339 54.4858C37.4788 39.6597 44.2179 25.7401 55.4179 15.6876C66.6179 5.63501 81.3951 0.242668 96.6066 0.657399C111.818 1.07213 126.264 7.26121 136.871 17.9083C147.478 28.5554 153.41 42.8205 153.405 57.6695H153.419Z" fill="url(#paint0_linear)"/>
<path d="M83.5056 55.6423C83.5056 55.6423 70.4369 49.5959 69.3012 41.2761C68.1656 32.9563 68.9633 25.0059 75.4751 22.7808C75.4751 22.7808 79.594 9.96691 94.1949 15.1162C108.796 20.2655 106.493 35.7267 114.474 37.5779C122.455 39.4292 137.358 31.6327 140.201 41.1442C143.045 50.6557 133.694 50.0752 127.48 58.1488C121.265 66.2224 130.864 70.4614 129.107 76.0197C127.349 81.578 120.711 85.3993 120.711 85.3993L83.5056 55.6423Z" fill="url(#paint1_linear)"/>
<path d="M65.6104 73.8914L69.3012 83.6843H69.7023L75.4751 58.1488C71.8293 61.2665 65.6104 73.8914 65.6104 73.8914Z" fill="url(#paint2_linear)"/>
<path d="M59.1302 87.4L56.7913 88.5477C53.8891 90.2451 49.5539 89.7614 49.5539 89.7614C51.8973 92.3339 65.0922 95.2449 68.801 95.1702L69.486 86.0588H61.2662L59.1302 87.4Z" fill="url(#paint3_linear)"/>
<path d="M120.414 109L120.323 109.044L120.012 109.189C119.756 109.312 119.503 109.426 119.242 109.541C117.61 110.271 115.937 110.926 114.222 111.506C113.248 111.838 112.264 112.144 111.27 112.425L110.08 112.746C96.8432 116.186 82.7894 114.993 70.3603 109.374C69.851 109.141 69.3418 108.903 68.8416 108.657L67.9403 108.217C68.0665 104.444 68.2603 99.9282 68.5442 95.1658C68.7244 92.1888 68.9452 89.115 69.2066 86.0633C69.2742 85.2673 69.3463 84.4758 69.4184 83.6843C70.4819 72.4359 72.1854 62.0053 74.9163 58.6897L74.9569 58.6457C75.3036 58.1801 75.7927 57.8337 76.3539 57.6563C80.297 56.7417 83.0775 56.4339 83.5146 55.6423C83.9518 54.8508 83.5146 53.2941 83.5146 53.2941L84.2988 53.1886C85.4389 53.0215 87.6516 52.6697 89.7471 52.142C89.7603 52.1461 89.7744 52.1461 89.7876 52.142C91.6398 51.6715 93.3928 51.0647 94.249 50.3347L96.0065 54.8948C96.0065 54.8948 109.224 53.2634 114.384 58.1664C114.416 58.1893 114.444 58.2159 114.469 58.2456C114.524 58.2936 114.575 58.345 114.623 58.3995C114.93 58.7162 115.203 59.0625 115.438 59.4329C117.119 62.0713 118.309 72.6601 119.134 84.146C119.323 86.7844 119.494 89.5108 119.643 92.18C119.985 98.3451 120.242 104.317 120.414 109Z" fill="url(#paint4_linear)"/>
<path opacity="0.15" d="M120.323 109.057L120.012 109.202C119.756 109.325 119.503 109.44 119.242 109.554C117.61 110.284 115.937 110.939 114.222 111.52C113.248 111.851 112.264 112.157 111.27 112.439C105.182 106.111 102.766 97.8966 102.766 97.8966L119.634 92.1801L120.323 109.057Z" fill="black"/>
<path d="M114.379 58.1488C120.486 63.9973 121.815 76.2747 120.688 85.4124C119.562 94.5502 117.471 103.107 113.127 102.844C108.782 102.58 93.7487 92.4043 87.9399 86.8548L91.3333 80.5006L103.609 85.4916V72.1896L114.379 58.1488Z" fill="url(#paint5_linear)"/>
<path d="M114.379 58.1488C120.486 63.9973 121.815 76.2747 120.688 85.4124C119.562 94.5502 117.471 103.107 113.127 102.844C108.782 102.58 93.7487 92.4043 87.9399 86.8548L91.3333 80.5006L103.609 85.4916V72.1896L114.379 58.1488Z" fill="url(#paint6_linear)"/>
<g filter="url(#filter0_d)">
<path d="M82.7981 83.6843H26.4718V86.0633H82.7981V83.6843Z" fill="url(#paint7_linear)"/>
<path d="M58.2919 54.4858H15.458L26.4718 83.6843H69.3012L58.2919 54.4858Z" fill="url(#paint8_linear)"/>
</g>
<path d="M39.3332 86.0632C39.3332 86.0632 46.7238 89.6734 51.4196 89.7614C56.1153 89.8493 61.2707 86.0632 61.2707 86.0632H39.3332Z" fill="url(#paint9_linear)"/>
<path d="M91.3334 80.5006C91.3334 80.5006 84.835 77.2993 82.0365 76.9475C79.238 76.5957 70.5496 83.6842 70.5496 83.6842H82.8071L87.9535 86.8547L91.3334 80.5006Z" fill="url(#paint10_linear)"/>
<path d="M93.6993 43.1231C93.7315 45.531 93.9121 47.9348 94.24 50.3216C91.3334 51.9178 87.931 52.7753 84.2898 53.193L84.078 50.3216L83.9518 48.5626V48.5054C83.2499 48.49 82.5579 48.3407 81.9149 48.0657C77.5166 46.2144 76.5702 37.1646 76.5702 37.1646C78.3322 37.0943 80.626 33.9941 80.626 33.9941C81.9103 35.9114 87.8679 39.614 91.3244 38.6202C94.7808 37.6264 94.5104 35.2474 94.5104 35.2474C95.1356 35.5046 95.6763 35.9244 96.0736 36.4611C96.471 36.9977 96.7097 37.6304 96.7636 38.2904C96.9484 40.6122 93.6993 43.1231 93.6993 43.1231Z" fill="url(#paint11_linear)"/>
<path opacity="0.15" d="M90.7475 45.6779C89.9318 47.0234 86.241 49.165 84.0824 50.3303L83.9562 48.5713C84.0914 48.5713 84.2221 48.5273 84.3483 48.501C86.1106 48.1966 87.8021 47.5843 89.3415 46.6936C89.3599 46.6866 89.3767 46.6762 89.391 46.6629C89.8536 46.396 90.287 46.0836 90.6844 45.7306L90.7475 45.6779Z" fill="black"/>
<path opacity="0.15" d="M98.5437 83.438L108.106 87.2549L103.6 84.0844V72.2115C103.6 72.2115 102.189 82.5278 98.5437 83.438Z" fill="black"/>
<defs>
<filter id="filter0_d" x="0.458008" y="39.4858" width="107.34" height="71.5775" filterUnits="userSpaceOnUse" color-interpolation-filters="sRGB">
<feFlood flood-opacity="0" result="BackgroundImageFix"/>
<feColorMatrix in="SourceAlpha" type="matrix" values="0 0 0 0 0 0 0 0 0 0 0 0 0 0 0 0 0 0 127 0"/>
<feOffset dx="5" dy="5"/>
<feGaussianBlur stdDeviation="10"/>
<feColorMatrix type="matrix" values="0 0 0 0 0 0 0 0 0 0 0 0 0 0 0 0 0 0 0.2 0"/>
<feBlend mode="normal" in2="BackgroundImageFix" result="effect1_dropShadow"/>
<feBlend mode="normal" in="SourceGraphic" in2="effect1_dropShadow" result="shape"/>
</filter>
<linearGradient id="paint0_linear" x1="95.2211" y1="6.82812" x2="93.3174" y2="119.235" gradientUnits="userSpaceOnUse">
<stop stop-color="white" stop-opacity="0"/>
<stop offset="1" stop-color="#64B5F6" stop-opacity="0.6"/>
</linearGradient>
<linearGradient id="paint1_linear" x1="68.8731" y1="49.6443" x2="140.733" y2="49.6443" gradientUnits="userSpaceOnUse">
<stop stop-color="#EF9A9A"/>
<stop offset="1" stop-color="#D81B60"/>
</linearGradient>
<linearGradient id="paint2_linear" x1="70.0087" y1="71.9301" x2="67.9441" y2="95.9881" gradientUnits="userSpaceOnUse">
<stop stop-color="#7E57C2"/>
<stop offset="1" stop-color="#4527A0"/>
</linearGradient>
<linearGradient id="paint3_linear" x1="6027.38" y1="2199.85" x2="6007.22" y2="2701.27" gradientUnits="userSpaceOnUse">
<stop stop-color="#7E57C2"/>
<stop offset="1" stop-color="#4527A0"/>
</linearGradient>
<linearGradient id="paint4_linear" x1="17991.2" y1="12933.4" x2="21552.7" y2="19626.5" gradientUnits="userSpaceOnUse">
<stop stop-color="#7E57C2"/>
<stop offset="1" stop-color="#4527A0"/>
</linearGradient>
<linearGradient id="paint5_linear" x1="12348.3" y1="8504.8" x2="15513.5" y2="13907.1" gradientUnits="userSpaceOnUse">
<stop stop-color="#7E57C2"/>
<stop offset="1" stop-color="#4527A0"/>
</linearGradient>
<linearGradient id="paint6_linear" x1="107.219" y1="63.109" x2="102.315" y2="104.095" gradientUnits="userSpaceOnUse">
<stop offset="0.14" stop-color="#7E57C2" stop-opacity="0"/>
<stop offset="0.26" stop-color="#724DBB" stop-opacity="0.21"/>
<stop offset="0.48" stop-color="#5F3DAF" stop-opacity="0.55"/>
<stop offset="0.66" stop-color="#5131A7" stop-opacity="0.79"/>
<stop offset="0.81" stop-color="#482AA2" stop-opacity="0.94"/>
<stop offset="0.91" stop-color="#4527A0"/>
</linearGradient>
<linearGradient id="paint7_linear" x1="26.4718" y1="84.8716" x2="82.7981" y2="84.8716" gradientUnits="userSpaceOnUse">
<stop stop-color="#D2D4D5"/>
<stop offset="1" stop-color="#AAACAE"/>
</linearGradient>
<linearGradient id="paint8_linear" x1="477.971" y1="3654.66" x2="3608.06" y2="7301.72" gradientUnits="userSpaceOnUse">
<stop stop-color="#D2D4D5"/>
<stop offset="1" stop-color="#AAACAE"/>
</linearGradient>
<linearGradient id="paint9_linear" x1="40.7302" y1="82.0924" x2="58.5987" y2="89.9423" gradientUnits="userSpaceOnUse">
<stop stop-color="#FFF8E1"/>
<stop offset="1" stop-color="#FFCC80"/>
</linearGradient>
<linearGradient id="paint10_linear" x1="6966.62" y1="2560.49" x2="7417.01" y2="3062.22" gradientUnits="userSpaceOnUse">
<stop stop-color="#FFF8E1"/>
<stop offset="1" stop-color="#FFCC80"/>
</linearGradient>
<linearGradient id="paint11_linear" x1="7116.43" y1="2809" x2="7508.9" y2="3564.02" gradientUnits="userSpaceOnUse">
<stop stop-color="#FFF8E1"/>
<stop offset="1" stop-color="#FFCC80"/>
</linearGradient>
</defs>
</svg>
