<svg width="124" height="119" viewBox="0 0 124 119" fill="none" xmlns="http://www.w3.org/2000/svg">
<path d="M118.056 57.7277C118.063 65.6164 116.36 73.4196 113.056 80.637C109.752 87.8544 104.921 94.327 98.8707 99.6398C97.1879 101.119 95.4186 102.504 93.5716 103.789C91.2012 105.437 88.7058 106.912 86.1065 108.201H86.0793C85.5253 108.481 84.9622 108.748 84.3946 109.006C84.1358 109.129 83.8815 109.242 83.6181 109.356C81.9744 110.083 80.2882 110.735 78.5597 111.313C77.1974 111.75 75.7989 112.188 74.3867 112.547C66.2407 114.635 57.7257 115.022 49.4122 113.68C48.4268 113.523 47.4551 113.343 46.4879 113.138L45.6705 112.958C43.2033 112.403 40.7763 111.692 38.4052 110.831C37.0279 110.332 35.6777 109.785 34.3548 109.19C33.8417 108.958 33.3286 108.722 32.8246 108.476C32.4795 108.31 32.1389 108.139 31.7984 107.969C22.5591 103.292 14.7754 96.3322 9.24436 87.8023C3.7133 79.2725 0.633622 69.479 0.320662 59.4246C0.0077025 49.3703 2.47272 39.4164 7.46329 30.5823C12.4539 21.7482 19.7907 14.3512 28.7224 9.14886C37.6541 3.94652 47.8599 1.12573 58.2946 0.975339C68.7293 0.824948 79.018 3.35036 88.1071 8.29297C97.1962 13.2356 104.759 20.4178 110.022 29.1041C115.284 37.7905 118.057 47.6689 118.056 57.7277Z" fill="url(#paint0_linear)"/>
<path d="M74.6044 61.8333C78.3551 65.5535 89.2803 80.0319 89.2803 80.0319L82.5689 89.5164L76.5342 70.6743L74.6044 61.8333Z" fill="url(#paint1_linear)"/>
<path d="M86.0798 108.231C85.5258 108.511 84.9627 108.778 84.3951 109.037C84.1363 109.159 83.882 109.273 83.6186 109.387C81.9749 110.113 80.2887 110.765 78.5602 111.343C77.1979 111.781 75.7994 112.219 74.3872 112.577C66.2412 114.666 57.7262 115.052 49.4127 113.711C48.4273 113.553 47.4556 113.374 46.4884 113.168C42.9466 115.523 39.6772 117.514 37.5112 118.42L37.6883 116.963L38.4239 110.866L40.1267 96.681L46.8744 90.3916L31.7035 91.5252C31.7035 91.5252 33.2973 70.2103 39.5182 65.8247C45.7392 61.4392 52.2643 57.5089 52.2643 57.5089C53.0428 58.0037 53.9003 58.3718 54.8026 58.5987C56.9603 59.1736 59.2031 59.394 61.4368 59.2508C64.0977 59.1326 66.7586 56.7473 66.8857 56.6248C66.8857 56.6248 71.0633 57.4257 74.6051 61.8506C76.3716 64.1284 77.6399 66.7283 78.3331 69.4925C79.205 72.7269 80.7534 80.2812 82.5152 89.4068C83.6686 95.2805 84.881 101.793 86.0798 108.231Z" fill="url(#paint2_linear)"/>
<path d="M89.2807 80.0494L95.7559 87.363L118.528 65.5754L119.391 61.1154L123.932 57.312L121.911 63.1112V70.6656C121.911 70.6656 104.347 98.1079 99.5066 99.5216C93.8442 101.18 82.5785 89.5076 82.5785 89.5076L89.2807 80.0494Z" fill="url(#paint3_linear)"/>
<path d="M65.6412 90.0504L70.9222 102.305L77.747 99.478L72.7431 87.4856L65.6412 90.0504Z" fill="#7E57C2"/>
<path d="M72.9972 97.9677C72.1481 98.6418 70.8812 98.4842 69.3101 98.563C67.1993 98.6165 65.1747 99.3816 63.5886 100.725C61.4771 102.436 55.5741 106.914 49.671 111.002C48.5994 111.741 47.5278 112.472 46.4925 113.19C42.9506 115.545 39.6812 117.536 37.5153 118.442C36.9458 118.715 36.3309 118.888 35.6989 118.954C32.6657 119.029 32.0163 112.901 31.8302 108.012C31.7711 106.389 31.7575 104.905 31.7257 103.833C31.5986 99.5434 31.7257 91.5777 31.7257 91.5777L46.8966 90.4397L45.2891 100.568L45.0076 102.358V102.371L49.5484 100.751L49.6892 100.703L65.8091 94.9303L66.9216 93.0789L67.63 94.8296H67.6981L74.6001 93.9543C74.6001 93.9543 74.7182 96.6066 72.9972 97.9677Z" fill="url(#paint4_linear)"/>
<path d="M69.5141 34.0932C69.1191 33.0515 68.7785 32.3425 68.6786 32.1324V32.0799C68.6786 32.0799 68.329 32.9115 65.6953 32.7101C63.0616 32.5088 62.1898 31.2483 62.1898 31.2483C62.1898 31.2483 63.0162 33.9794 59.8785 35.148C56.8589 36.2772 55.6692 35.5463 55.5874 35.4938C55.7464 35.6601 58.1076 38.0936 56.541 40.0237C54.9199 42.0239 51.2737 41.63 51.2737 41.63V41.6563C51.7325 42.6579 52.2464 43.6353 52.813 44.5843C53.1127 45.0833 53.4078 45.5428 53.7212 45.9718V46.0024C54.5253 47.2633 55.6112 48.3354 56.8997 49.1405C56.3334 52.3435 54.707 55.2838 52.2636 57.5221C53.0855 57.9355 53.9333 58.2994 54.8019 58.6119C56.4956 59.229 58.7705 59.8418 60.8003 59.6711C63.1521 59.4287 65.3254 58.3486 66.8941 56.6423L65.8542 52.7951L64.9188 49.3287C73.3738 47.2498 71.0489 38.2074 69.5141 34.0932ZM64.4466 49.4557L64.5964 49.4207L64.8371 49.355C64.4868 49.501 64.1168 49.5983 63.7382 49.6439C63.9335 49.5957 64.1332 49.5432 64.3421 49.4819L64.4466 49.4557Z" fill="url(#paint5_linear)"/>
<path d="M74.6041 31.9661C71.1168 35.0561 69.6093 34.1851 69.5139 34.1019V34.0932C69.1188 33.0515 68.7783 32.3425 68.6829 32.1324L68.6602 32.0799C68.6602 32.0799 68.306 32.9115 65.6724 32.7101C63.0387 32.5088 62.1714 31.2483 62.1714 31.2483C62.1714 31.2483 62.9978 33.9794 59.8601 35.148C56.8359 36.2772 55.6462 35.5463 55.5691 35.4938C55.728 35.6557 58.0892 38.0892 56.5226 40.0194C54.9015 42.0195 51.2553 41.63 51.2553 41.63V41.6519C51.714 42.655 52.2278 43.6339 52.7946 44.5843C53.0973 45.0803 53.4001 45.5428 53.7028 45.9718V46.0024C53.7028 46.0024 52.4586 48.3615 50.2381 48.3133C48.0177 48.2652 47.9677 46.1249 47.9677 46.1249C47.9677 46.1249 46.3966 48.856 41.5425 46.2256C36.6883 43.5952 39.9259 39.783 39.9259 39.783C39.9259 39.783 36.484 37.2445 36.484 33.4411C36.484 29.6376 41.8422 26.7446 41.8422 26.7446C41.8422 26.7446 39.9259 22.3284 43.159 19.8949C46.3921 17.4614 51.2507 19.1115 51.2507 19.1115C51.2507 19.1115 51.1554 13.4611 56.1049 13.553C61.0544 13.6449 62.1759 16.5642 62.1759 16.5642C62.1759 16.5642 66.6259 13.2466 71.0305 16.3716C75.4351 19.4967 73.6233 24.9457 73.6233 24.9457C73.6233 24.9457 78.2413 28.7492 74.6041 31.9661Z" fill="url(#paint6_linear)"/>
<path opacity="0.15" d="M65.8906 52.7819C63.7791 52.1385 60.0238 49.6832 60.0238 49.6832C61.5058 49.8341 63.0032 49.7573 64.4602 49.4556L64.61 49.4206L64.9007 49.3374H64.9415L65.8906 52.7819Z" fill="black"/>
<path opacity="0.15" d="M48.9218 77.3008L46.8739 90.4311L45.2664 100.559L41.5248 103.557L49.6665 100.708C49.6665 100.708 47.555 94.8954 48.9218 77.3008Z" fill="black"/>
<path opacity="0.15" d="M46.4792 113.168C47.4464 113.374 48.4181 113.554 49.4034 113.711C49.4534 112.814 49.5442 111.908 49.6714 111.002L46.4792 113.168Z" fill="black"/>
<defs>
<linearGradient id="paint0_linear" x1="59.4165" y1="7.13176" x2="57.5456" y2="118.991" gradientUnits="userSpaceOnUse">
<stop stop-color="white" stop-opacity="0"/>
<stop offset="1" stop-color="#64B5F6" stop-opacity="0.6"/>
</linearGradient>
<linearGradient id="paint1_linear" x1="70.1589" y1="58.0736" x2="85.507" y2="86.0541" gradientUnits="userSpaceOnUse">
<stop stop-color="#E57373"/>
<stop offset="1" stop-color="#AD1457"/>
</linearGradient>
<linearGradient id="paint2_linear" x1="24859.9" y1="34126.4" x2="23262.2" y2="42307.2" gradientUnits="userSpaceOnUse">
<stop stop-color="#E57373"/>
<stop offset="1" stop-color="#AD1457"/>
</linearGradient>
<linearGradient id="paint3_linear" x1="130.094" y1="68.1883" x2="86.9259" y2="94.1333" gradientUnits="userSpaceOnUse">
<stop stop-color="#FFF8E1"/>
<stop offset="1" stop-color="#FFCC80"/>
</linearGradient>
<linearGradient id="paint4_linear" x1="19116.5" y1="19114.7" x2="16797.7" y2="17492.6" gradientUnits="userSpaceOnUse">
<stop stop-color="#FFF8E1"/>
<stop offset="1" stop-color="#FFCC80"/>
</linearGradient>
<linearGradient id="paint5_linear" x1="73.9596" y1="38.5503" x2="50.2385" y2="48.6853" gradientUnits="userSpaceOnUse">
<stop stop-color="#FFF8E1"/>
<stop offset="1" stop-color="#FFCC80"/>
</linearGradient>
<linearGradient id="paint6_linear" x1="68.4559" y1="13.3867" x2="41.7045" y2="50.8874" gradientUnits="userSpaceOnUse">
<stop stop-color="#FFB74D"/>
<stop offset="1" stop-color="#F4511E"/>
</linearGradient>
</defs>
</svg>
