<svg width="705" height="297" viewBox="0 0 705 297" fill="none" xmlns="http://www.w3.org/2000/svg">
<mask id="mask0" mask-type="alpha" maskUnits="userSpaceOnUse" x="0" y="0" width="705" height="297">
<rect width="704.625" height="296.684" rx="10" fill="#E8E8E8"/>
</mask>
<g mask="url(#mask0)">
<rect x="-24.7368" y="-84.6653" width="753.349" height="453.92"/>
<rect width="704.625" height="296.684" fill="url(#paint0_linear)"/>
<g opacity="0.6">
<path d="M33.7318 276.763V268.225H39.7286V276.763H47.2246V265.379H51.7222L36.7302 252.573L21.7382 265.379H26.2358V276.763H33.7318Z" fill="white"/>
<path d="M88.2016 265.379C88.2016 292.169 65.2817 314.106 36.7303 314.106C8.17893 314.106 -14.741 292.169 -14.741 265.379C-14.741 238.59 8.17893 216.653 36.7303 216.653C65.2817 216.653 88.2016 238.59 88.2016 265.379Z" stroke="white" stroke-width="5"/>
<path d="M76.9584 73.9932C76.9584 86.3592 66.3809 96.4718 53.2216 96.4718C40.0623 96.4718 29.4847 86.3592 29.4847 73.9932C29.4847 61.6271 40.0623 51.5146 53.2216 51.5146C66.3809 51.5146 76.9584 61.6271 76.9584 73.9932Z" stroke="white" stroke-width="2"/>
<path d="M267.357 135.891C267.357 148.257 256.779 158.37 243.62 158.37C230.46 158.37 219.883 148.257 219.883 135.891C219.883 123.525 230.46 113.413 243.62 113.413C256.779 113.413 267.357 123.525 267.357 135.891Z" stroke="white" stroke-width="2"/>
<path d="M133.928 166.485C133.928 178.851 123.351 188.963 110.192 188.963C97.0322 188.963 86.4547 178.851 86.4547 166.485C86.4547 154.119 97.0322 144.006 110.192 144.006C123.351 144.006 133.928 154.119 133.928 166.485Z" stroke="white" stroke-width="2"/>
<path d="M250.116 255.419C250.116 267.785 239.539 277.897 226.38 277.897C213.22 277.897 202.643 267.785 202.643 255.419C202.643 243.053 213.22 232.94 226.38 232.94C239.539 232.94 250.116 243.053 250.116 255.419Z" stroke="white" stroke-width="2"/>
<path d="M41.9777 216.288L50.9729 96.7604" stroke="white" stroke-width="2" stroke-linecap="round"/>
<path d="M89.203 269.648L203.142 261.822" stroke="white" stroke-width="2" stroke-linecap="round"/>
<path d="M66.7147 224.114L100.447 187.117" stroke="white" stroke-width="2" stroke-linecap="round"/>
<path d="M84.7058 245.814L227.13 153.678" stroke="white" stroke-width="2" stroke-linecap="round"/>
</g>
<path d="M267.737 87.8594C265.165 87.1198 263.29 86.2135 262.112 85.1406C260.946 84.0573 260.362 82.724 260.362 81.1406C260.362 79.349 261.076 77.8698 262.503 76.7031C263.941 75.526 265.805 74.9375 268.097 74.9375C269.659 74.9375 271.05 75.2396 272.269 75.8438C273.498 76.4479 274.446 77.2812 275.112 78.3438C275.79 79.4062 276.128 80.5677 276.128 81.8281H273.112C273.112 80.4531 272.675 79.375 271.8 78.5938C270.925 77.8021 269.691 77.4062 268.097 77.4062C266.618 77.4062 265.461 77.7344 264.628 78.3906C263.805 79.0365 263.394 79.9375 263.394 81.0938C263.394 82.0208 263.784 82.8073 264.566 83.4531C265.357 84.0885 266.696 84.6719 268.581 85.2031C270.477 85.7344 271.956 86.3229 273.019 86.9688C274.092 87.6042 274.883 88.349 275.394 89.2031C275.915 90.0573 276.175 91.0625 276.175 92.2188C276.175 94.0625 275.456 95.5417 274.019 96.6562C272.581 97.7604 270.659 98.3125 268.253 98.3125C266.691 98.3125 265.232 98.0156 263.878 97.4219C262.524 96.8177 261.477 95.9948 260.737 94.9531C260.008 93.9115 259.644 92.7292 259.644 91.4062H262.659C262.659 92.7812 263.165 93.8698 264.175 94.6719C265.196 95.4635 266.555 95.8594 268.253 95.8594C269.836 95.8594 271.05 95.5365 271.894 94.8906C272.737 94.2448 273.159 93.3646 273.159 92.25C273.159 91.1354 272.769 90.276 271.987 89.6719C271.206 89.0573 269.79 88.4531 267.737 87.8594ZM283.9 81.0938L283.978 82.9688C285.218 81.5104 286.89 80.7812 288.994 80.7812C291.358 80.7812 292.968 81.6875 293.822 83.5C294.384 82.6875 295.114 82.0312 296.009 81.5312C296.916 81.0312 297.983 80.7812 299.212 80.7812C302.921 80.7812 304.806 82.7448 304.869 86.6719V98H301.978V86.8438C301.978 85.6354 301.702 84.7344 301.15 84.1406C300.598 83.5365 299.671 83.2344 298.369 83.2344C297.296 83.2344 296.405 83.5573 295.697 84.2031C294.989 84.8385 294.577 85.6979 294.462 86.7812V98H291.556V86.9219C291.556 84.4635 290.353 83.2344 287.947 83.2344C286.051 83.2344 284.754 84.0417 284.056 85.6562V98H281.166V81.0938H283.9ZM321.281 98C321.115 97.6667 320.979 97.0729 320.875 96.2188C319.531 97.6146 317.927 98.3125 316.062 98.3125C314.396 98.3125 313.026 97.8438 311.953 96.9062C310.891 95.9583 310.359 94.7604 310.359 93.3125C310.359 91.5521 311.026 90.1875 312.359 89.2188C313.703 88.2396 315.589 87.75 318.016 87.75H320.828V86.4219C320.828 85.4115 320.526 84.6094 319.922 84.0156C319.318 83.4115 318.427 83.1094 317.25 83.1094C316.219 83.1094 315.354 83.3698 314.656 83.8906C313.958 84.4115 313.609 85.0417 313.609 85.7812H310.703C310.703 84.9375 311 84.125 311.594 83.3438C312.198 82.5521 313.01 81.9271 314.031 81.4688C315.062 81.0104 316.193 80.7812 317.422 80.7812C319.37 80.7812 320.896 81.2708 322 82.25C323.104 83.2188 323.677 84.5573 323.719 86.2656V94.0469C323.719 95.599 323.917 96.8333 324.312 97.75V98H321.281ZM316.484 95.7969C317.391 95.7969 318.25 95.5625 319.062 95.0938C319.875 94.625 320.464 94.0156 320.828 93.2656V89.7969H318.562C315.021 89.7969 313.25 90.8333 313.25 92.9062C313.25 93.8125 313.552 94.5208 314.156 95.0312C314.76 95.5417 315.536 95.7969 316.484 95.7969ZM338.022 83.6875C337.584 83.6146 337.11 83.5781 336.6 83.5781C334.704 83.5781 333.418 84.3854 332.741 86V98H329.85V81.0938H332.662L332.709 83.0469C333.657 81.5365 335.001 80.7812 336.741 80.7812C337.303 80.7812 337.73 80.8542 338.022 81V83.6875ZM346.997 77V81.0938H350.153V83.3281H346.997V93.8125C346.997 94.4896 347.137 95 347.419 95.3438C347.7 95.6771 348.179 95.8438 348.856 95.8438C349.19 95.8438 349.648 95.7812 350.231 95.6562V98C349.471 98.2083 348.731 98.3125 348.012 98.3125C346.721 98.3125 345.747 97.9219 345.091 97.1406C344.434 96.3594 344.106 95.25 344.106 93.8125V83.3281H341.028V81.0938H344.106V77H346.997ZM382.619 98H379.603V87.4844H368.134V98H365.134V75.25H368.134V85.0312H379.603V75.25H382.619V98ZM388.328 89.3906C388.328 87.7344 388.651 86.2448 389.297 84.9219C389.953 83.599 390.859 82.5781 392.016 81.8594C393.182 81.1406 394.51 80.7812 396 80.7812C398.302 80.7812 400.161 81.5781 401.578 83.1719C403.005 84.7656 403.719 86.8854 403.719 89.5312V89.7344C403.719 91.3802 403.401 92.8594 402.766 94.1719C402.141 95.474 401.24 96.4896 400.062 97.2188C398.896 97.9479 397.552 98.3125 396.031 98.3125C393.74 98.3125 391.88 97.5156 390.453 95.9219C389.036 94.3281 388.328 92.2188 388.328 89.5938V89.3906ZM391.234 89.7344C391.234 91.6094 391.667 93.1146 392.531 94.25C393.406 95.3854 394.573 95.9531 396.031 95.9531C397.5 95.9531 398.667 95.3802 399.531 94.2344C400.396 93.0781 400.828 91.4635 400.828 89.3906C400.828 87.5365 400.385 86.0365 399.5 84.8906C398.625 83.7344 397.458 83.1562 396 83.1562C394.573 83.1562 393.422 83.724 392.547 84.8594C391.672 85.9948 391.234 87.6198 391.234 89.7344ZM411.662 81.0938L411.741 82.9688C412.98 81.5104 414.652 80.7812 416.756 80.7812C419.121 80.7812 420.73 81.6875 421.584 83.5C422.147 82.6875 422.876 82.0312 423.772 81.5312C424.678 81.0312 425.746 80.7812 426.975 80.7812C430.683 80.7812 432.569 82.7448 432.631 86.6719V98H429.741V86.8438C429.741 85.6354 429.465 84.7344 428.912 84.1406C428.36 83.5365 427.433 83.2344 426.131 83.2344C425.058 83.2344 424.168 83.5573 423.459 84.2031C422.751 84.8385 422.34 85.6979 422.225 86.7812V98H419.319V86.9219C419.319 84.4635 418.116 83.2344 415.709 83.2344C413.814 83.2344 412.517 84.0417 411.819 85.6562V98H408.928V81.0938H411.662ZM445.622 98.3125C443.33 98.3125 441.466 97.5625 440.028 96.0625C438.591 94.5521 437.872 92.5365 437.872 90.0156V89.4844C437.872 87.8073 438.19 86.3125 438.825 85C439.471 83.6771 440.367 82.6458 441.512 81.9062C442.669 81.1562 443.919 80.7812 445.262 80.7812C447.46 80.7812 449.169 81.5052 450.387 82.9531C451.606 84.401 452.216 86.474 452.216 89.1719V90.375H440.762C440.804 92.0417 441.289 93.3906 442.216 94.4219C443.153 95.4427 444.341 95.9531 445.778 95.9531C446.799 95.9531 447.664 95.7448 448.372 95.3281C449.08 94.9115 449.7 94.3594 450.231 93.6719L451.997 95.0469C450.58 97.224 448.455 98.3125 445.622 98.3125ZM445.262 83.1562C444.096 83.1562 443.117 83.5833 442.325 84.4375C441.533 85.2812 441.044 86.4688 440.856 88H449.325V87.7812C449.242 86.3125 448.846 85.1771 448.137 84.375C447.429 83.5625 446.471 83.1562 445.262 83.1562ZM470.384 98H467.384V75.25H470.384V98ZM479.766 81.0938L479.859 83.2188C481.151 81.5938 482.839 80.7812 484.922 80.7812C488.495 80.7812 490.297 82.7969 490.328 86.8281V98H487.437V86.8125C487.427 85.5938 487.146 84.6927 486.594 84.1094C486.052 83.526 485.203 83.2344 484.047 83.2344C483.109 83.2344 482.286 83.4844 481.578 83.9844C480.87 84.4844 480.318 85.1406 479.922 85.9531V98H477.031V81.0938H479.766ZM506.131 93.5156C506.131 92.7344 505.834 92.1302 505.241 91.7031C504.657 91.2656 503.631 90.8906 502.162 90.5781C500.704 90.2656 499.543 89.8906 498.678 89.4531C497.824 89.0156 497.189 88.4948 496.772 87.8906C496.366 87.2865 496.162 86.5677 496.162 85.7344C496.162 84.349 496.746 83.1771 497.912 82.2188C499.09 81.2604 500.59 80.7812 502.412 80.7812C504.329 80.7812 505.881 81.276 507.069 82.2656C508.267 83.2552 508.866 84.5208 508.866 86.0625H505.959C505.959 85.2708 505.621 84.5885 504.944 84.0156C504.277 83.4427 503.433 83.1562 502.412 83.1562C501.36 83.1562 500.537 83.3854 499.944 83.8438C499.35 84.3021 499.053 84.901 499.053 85.6406C499.053 86.3385 499.329 86.8646 499.881 87.2188C500.433 87.5729 501.428 87.9115 502.866 88.2344C504.314 88.5573 505.485 88.9427 506.381 89.3906C507.277 89.8385 507.939 90.3802 508.366 91.0156C508.803 91.6406 509.022 92.4062 509.022 93.3125C509.022 94.8229 508.418 96.0365 507.209 96.9531C506.001 97.8594 504.433 98.3125 502.506 98.3125C501.152 98.3125 499.954 98.0729 498.912 97.5938C497.871 97.1146 497.053 96.4479 496.459 95.5938C495.876 94.7292 495.584 93.7969 495.584 92.7969H498.475C498.527 93.7656 498.912 94.5365 499.631 95.1094C500.36 95.6719 501.319 95.9531 502.506 95.9531C503.6 95.9531 504.475 95.7344 505.131 95.2969C505.798 94.849 506.131 94.2552 506.131 93.5156ZM518.309 77V81.0938H521.466V83.3281H518.309V93.8125C518.309 94.4896 518.45 95 518.731 95.3438C519.012 95.6771 519.492 95.8438 520.169 95.8438C520.502 95.8438 520.96 95.7812 521.544 95.6562V98C520.783 98.2083 520.044 98.3125 519.325 98.3125C518.033 98.3125 517.059 97.9219 516.403 97.1406C515.747 96.3594 515.419 95.25 515.419 93.8125V83.3281H512.341V81.0938H515.419V77H518.309ZM536.894 98C536.727 97.6667 536.592 97.0729 536.487 96.2188C535.144 97.6146 533.54 98.3125 531.675 98.3125C530.008 98.3125 528.639 97.8438 527.566 96.9062C526.503 95.9583 525.972 94.7604 525.972 93.3125C525.972 91.5521 526.639 90.1875 527.972 89.2188C529.316 88.2396 531.201 87.75 533.628 87.75H536.441V86.4219C536.441 85.4115 536.139 84.6094 535.534 84.0156C534.93 83.4115 534.04 83.1094 532.862 83.1094C531.831 83.1094 530.967 83.3698 530.269 83.8906C529.571 84.4115 529.222 85.0417 529.222 85.7812H526.316C526.316 84.9375 526.612 84.125 527.206 83.3438C527.81 82.5521 528.623 81.9271 529.644 81.4688C530.675 81.0104 531.805 80.7812 533.034 80.7812C534.982 80.7812 536.508 81.2708 537.612 82.25C538.717 83.2188 539.29 84.5573 539.331 86.2656V94.0469C539.331 95.599 539.529 96.8333 539.925 97.75V98H536.894ZM532.097 95.7969C533.003 95.7969 533.862 95.5625 534.675 95.0938C535.487 94.625 536.076 94.0156 536.441 93.2656V89.7969H534.175C530.633 89.7969 528.862 90.8333 528.862 92.9062C528.862 93.8125 529.165 94.5208 529.769 95.0312C530.373 95.5417 531.149 95.7969 532.097 95.7969ZM548.603 98H545.712V74H548.603V98ZM557.984 98H555.094V74H557.984V98ZM574.662 98C574.496 97.6667 574.36 97.0729 574.256 96.2188C572.912 97.6146 571.308 98.3125 569.444 98.3125C567.777 98.3125 566.407 97.8438 565.334 96.9062C564.272 95.9583 563.741 94.7604 563.741 93.3125C563.741 91.5521 564.407 90.1875 565.741 89.2188C567.084 88.2396 568.97 87.75 571.397 87.75H574.209V86.4219C574.209 85.4115 573.907 84.6094 573.303 84.0156C572.699 83.4115 571.808 83.1094 570.631 83.1094C569.6 83.1094 568.735 83.3698 568.037 83.8906C567.34 84.4115 566.991 85.0417 566.991 85.7812H564.084C564.084 84.9375 564.381 84.125 564.975 83.3438C565.579 82.5521 566.392 81.9271 567.412 81.4688C568.444 81.0104 569.574 80.7812 570.803 80.7812C572.751 80.7812 574.277 81.2708 575.381 82.25C576.485 83.2188 577.058 84.5573 577.1 86.2656V94.0469C577.1 95.599 577.298 96.8333 577.694 97.75V98H574.662ZM569.866 95.7969C570.772 95.7969 571.631 95.5625 572.444 95.0938C573.256 94.625 573.845 94.0156 574.209 93.2656V89.7969H571.944C568.402 89.7969 566.631 90.8333 566.631 92.9062C566.631 93.8125 566.933 94.5208 567.537 95.0312C568.142 95.5417 568.918 95.7969 569.866 95.7969ZM587.153 77V81.0938H590.309V83.3281H587.153V93.8125C587.153 94.4896 587.294 95 587.575 95.3438C587.856 95.6771 588.335 95.8438 589.012 95.8438C589.346 95.8438 589.804 95.7812 590.387 95.6562V98C589.627 98.2083 588.887 98.3125 588.169 98.3125C586.877 98.3125 585.903 97.9219 585.247 97.1406C584.591 96.3594 584.262 95.25 584.262 93.8125V83.3281H581.184V81.0938H584.262V77H587.153ZM598.441 98H595.55V81.0938H598.441V98ZM595.316 76.6094C595.316 76.1406 595.456 75.7448 595.737 75.4219C596.029 75.099 596.456 74.9375 597.019 74.9375C597.581 74.9375 598.008 75.099 598.3 75.4219C598.592 75.7448 598.737 76.1406 598.737 76.6094C598.737 77.0781 598.592 77.4688 598.3 77.7812C598.008 78.0938 597.581 78.25 597.019 78.25C596.456 78.25 596.029 78.0938 595.737 77.7812C595.456 77.4688 595.316 77.0781 595.316 76.6094ZM603.916 89.3906C603.916 87.7344 604.239 86.2448 604.884 84.9219C605.541 83.599 606.447 82.5781 607.603 81.8594C608.77 81.1406 610.098 80.7812 611.587 80.7812C613.89 80.7812 615.749 81.5781 617.166 83.1719C618.593 84.7656 619.306 86.8854 619.306 89.5312V89.7344C619.306 91.3802 618.989 92.8594 618.353 94.1719C617.728 95.474 616.827 96.4896 615.65 97.2188C614.483 97.9479 613.14 98.3125 611.619 98.3125C609.327 98.3125 607.468 97.5156 606.041 95.9219C604.624 94.3281 603.916 92.2188 603.916 89.5938V89.3906ZM606.822 89.7344C606.822 91.6094 607.254 93.1146 608.119 94.25C608.994 95.3854 610.16 95.9531 611.619 95.9531C613.087 95.9531 614.254 95.3802 615.119 94.2344C615.983 93.0781 616.416 91.4635 616.416 89.3906C616.416 87.5365 615.973 86.0365 615.087 84.8906C614.212 83.7344 613.046 83.1562 611.587 83.1562C610.16 83.1562 609.009 83.724 608.134 84.8594C607.259 85.9948 606.822 87.6198 606.822 89.7344ZM627.266 81.0938L627.359 83.2188C628.651 81.5938 630.339 80.7812 632.422 80.7812C635.995 80.7812 637.797 82.7969 637.828 86.8281V98H634.938V86.8125C634.927 85.5938 634.646 84.6927 634.094 84.1094C633.552 83.526 632.703 83.2344 631.547 83.2344C630.609 83.2344 629.786 83.4844 629.078 83.9844C628.37 84.4844 627.818 85.1406 627.422 85.9531V98H624.531V81.0938H627.266Z" fill="white"/>
</g>
<defs>
<linearGradient id="paint0_linear" x1="25.4727" y1="192.075" x2="690.274" y2="191.707" gradientUnits="userSpaceOnUse">
<stop stop-color="#1F3F68"/>
<stop offset="0.998233" stop-color="#1F3F68" stop-opacity="0.37"/>
</linearGradient>
</defs>
</svg>
